<svg width="32" height="22" viewBox="0 0 32 22" fill="none" xmlns="http://www.w3.org/2000/svg">
<path d="M29.6034 0.517189H2.39656C1.07294 0.517189 0 1.59013 0 2.91375V19.0863C0 20.4098 1.07294 21.4828 2.39656 21.4828H29.6034C30.927 21.4828 32 20.4099 32 19.0863V2.91375C32 1.59013 30.9271 0.517189 29.6034 0.517189Z" fill="#73AF00"/>
<path d="M15.7131 3.45044L4.08462 10.5286C3.73144 10.7436 3.73144 11.2562 4.08462 11.4712L15.7131 18.5495C15.8893 18.6568 16.1106 18.6568 16.2869 18.5495L27.9154 11.4713C28.2686 11.2563 28.2686 10.7437 27.9154 10.5287L16.2869 3.45044C16.1107 3.34325 15.8893 3.34325 15.7131 3.45044Z" fill="#FFE15A"/>
<path d="M16 15.4137C18.4377 15.4137 20.4138 13.4376 20.4138 10.9999C20.4138 8.56228 18.4377 6.58618 16 6.58618C13.5624 6.58618 11.5863 8.56228 11.5863 10.9999C11.5863 13.4376 13.5624 15.4137 16 15.4137Z" fill="#41479B"/>
<path d="M12.2125 8.742C12.0043 9.09063 11.8434 9.4695 11.7372 9.87181C14.184 9.68769 17.8036 10.3722 20.1073 12.6076C20.2577 12.2238 20.357 11.8149 20.3942 11.3875C18.0154 9.38544 14.7268 8.6735 12.2125 8.742Z" fill="#F5F5F5"/>
<path d="M16.1828 12.5062L16.3003 12.8586L16.6718 12.8614C16.7198 12.8618 16.7398 12.9232 16.7011 12.9517L16.4023 13.1724L16.5143 13.5266C16.5288 13.5724 16.4766 13.6104 16.4375 13.5824L16.1353 13.3664L15.8331 13.5824C15.794 13.6103 15.7418 13.5724 15.7563 13.5266L15.8684 13.1724L15.5696 12.9517C15.5309 12.9232 15.5508 12.8618 15.5989 12.8614L15.9703 12.8586L16.0878 12.5062C16.1031 12.4605 16.1676 12.4605 16.1828 12.5062Z" fill="#F5F5F5"/>
<path d="M17.6265 13.4177L17.6771 13.5693L17.837 13.5706C17.8577 13.5707 17.8662 13.5971 17.8496 13.6094L17.721 13.7044L17.7692 13.8568C17.7753 13.8766 17.753 13.8929 17.736 13.8808L17.606 13.7879L17.4759 13.8808C17.4591 13.8929 17.4366 13.8766 17.4428 13.8568L17.491 13.7044L17.3624 13.6094C17.3457 13.5972 17.3543 13.5708 17.375 13.5706L17.5349 13.5693L17.5855 13.4177C17.5922 13.398 17.62 13.398 17.6265 13.4177Z" fill="#F5F5F5"/>
<path d="M15.5586 11.8368L15.6092 11.9884L15.7691 11.9896C15.7898 11.9898 15.7984 12.0162 15.7817 12.0285L15.6531 12.1234L15.7013 12.2759C15.7074 12.2956 15.6851 12.3119 15.6682 12.2999L15.5381 12.2069L15.4081 12.2999C15.3913 12.3119 15.3688 12.2956 15.3749 12.2759L15.4231 12.1234L15.2945 12.0285C15.2779 12.0163 15.2864 11.9898 15.3071 11.9896L15.467 11.9884L15.5176 11.8368C15.5243 11.8173 15.5521 11.8173 15.5586 11.8368Z" fill="#F5F5F5"/>
<path d="M12.7582 11.6529L12.8087 11.8045L12.9686 11.8057C12.9893 11.8059 12.9979 11.8323 12.9812 11.8446L12.8526 11.9396L12.9008 12.092C12.907 12.1117 12.8846 12.1281 12.8677 12.116L12.7376 12.0231L12.6075 12.116C12.5907 12.128 12.5682 12.1117 12.5745 12.092L12.6227 11.9396L12.494 11.8446C12.4773 11.8324 12.486 11.8059 12.5067 11.8057L12.6665 11.8045L12.7171 11.6529C12.7238 11.6333 12.7516 11.6333 12.7582 11.6529Z" fill="#F5F5F5"/>
<path d="M15.1009 13.3654L15.1515 13.517L15.3113 13.5182C15.332 13.5184 15.3406 13.5448 15.324 13.5571L15.1953 13.6521L15.2435 13.8045C15.2497 13.8242 15.2273 13.8405 15.2105 13.8285L15.0804 13.7355L14.9503 13.8285C14.9335 13.8405 14.911 13.8242 14.9172 13.8045L14.9654 13.6521L14.8368 13.5571C14.8201 13.5449 14.8287 13.5184 14.8494 13.5182L15.0093 13.517L15.0598 13.3654C15.0666 13.3457 15.0944 13.3457 15.1009 13.3654Z" fill="#F5F5F5"/>
<path d="M13.8119 11.5471L13.8533 11.6711L13.984 11.6721C14.0009 11.6723 14.008 11.6939 13.9944 11.7039L13.8892 11.7816L13.9286 11.9062C13.9338 11.9223 13.9154 11.9357 13.9016 11.9258L13.7952 11.8498L13.6888 11.9258C13.675 11.9357 13.6567 11.9223 13.6618 11.9062L13.7012 11.7816L13.596 11.7039C13.5825 11.6939 13.5894 11.6723 13.6064 11.6721L13.7371 11.6711L13.7785 11.5471C13.7838 11.5311 13.8065 11.5311 13.8119 11.5471Z" fill="#F5F5F5"/>
<path d="M17.7387 8.98713L17.7905 9.14225L17.954 9.1435C17.9751 9.14363 17.9839 9.17069 17.9668 9.18331L17.8353 9.28044L17.8846 9.43638C17.8911 9.45656 17.868 9.47325 17.8508 9.46094L17.7178 9.36581L17.5847 9.46094C17.5675 9.47331 17.5445 9.4565 17.5509 9.43638L17.6002 9.28044L17.4687 9.18331C17.4516 9.17075 17.4605 9.14375 17.4816 9.1435L17.6451 9.14225L17.6968 8.98713C17.7036 8.96688 17.732 8.96688 17.7387 8.98713Z" fill="#F5F5F5"/>
<path d="M12.9383 10.7884L12.9796 10.9124L13.1104 10.9135C13.1273 10.9136 13.1343 10.9353 13.1208 10.9453L13.0156 11.0229L13.055 11.1476C13.0601 11.1637 13.0418 11.1771 13.028 11.1672L12.9216 11.0912L12.8152 11.1672C12.8014 11.1771 12.7831 11.1637 12.7881 11.1476L12.8276 11.0229L12.7224 10.9453C12.7088 10.9353 12.7158 10.9137 12.7328 10.9135L12.8635 10.9124L12.9049 10.7884C12.9102 10.7724 12.9329 10.7724 12.9383 10.7884Z" fill="#F5F5F5"/>
<path d="M13.5695 12.5363L13.6321 12.7241L13.8301 12.7256C13.8558 12.7258 13.8664 12.7585 13.8458 12.7737L13.6864 12.8914L13.7462 13.0801C13.7539 13.1046 13.7261 13.1248 13.7053 13.1099L13.5441 12.9947L13.383 13.1099C13.3622 13.1247 13.3343 13.1046 13.3421 13.0801L13.4018 12.8914L13.2425 12.7737C13.2219 12.7585 13.2325 12.7258 13.2581 12.7256L13.4561 12.7241L13.5188 12.5363C13.5271 12.5119 13.5614 12.5119 13.5695 12.5363Z" fill="#F5F5F5"/>
<path d="M18.4314 13.4571L18.4709 13.5752L18.5954 13.5762C18.6115 13.5763 18.6182 13.5969 18.6053 13.6064L18.5051 13.6804L18.5427 13.7992C18.5475 13.8146 18.53 13.8272 18.5169 13.8179L18.4155 13.7454L18.3142 13.8179C18.301 13.8272 18.2835 13.8146 18.2884 13.7992L18.3259 13.6804L18.2257 13.6064C18.2128 13.5969 18.2195 13.5763 18.2356 13.5762L18.3602 13.5752L18.3995 13.4571C18.4047 13.4417 18.4264 13.4417 18.4314 13.4571Z" fill="#F5F5F5"/>
<path d="M18.8673 12.5552L18.9179 12.7068L19.0778 12.7081C19.0984 12.7082 19.1071 12.7346 19.0904 12.7469L18.9618 12.8419L19.0099 12.9943C19.0161 13.0141 18.9938 13.0304 18.9769 13.0183L18.8468 12.9254L18.7168 13.0183C18.6999 13.0304 18.6774 13.0141 18.6837 12.9943L18.7319 12.8419L18.6033 12.7469C18.5866 12.7347 18.5952 12.7083 18.6159 12.7081L18.7758 12.7068L18.8263 12.5552C18.8329 12.5355 18.8608 12.5355 18.8673 12.5552Z" fill="#F5F5F5"/>
</svg>
