<svg width="32" height="21" viewBox="0 0 32 21" fill="none" xmlns="http://www.w3.org/2000/svg">
<path d="M29.6034 0.00100708H2.39656C1.07294 0.00100708 0 1.07414 0 2.398V18.5733C0 19.8971 1.07294 20.9703 2.39656 20.9703H29.6034C30.927 20.9703 32 19.8972 32 18.5733V2.398C32 1.07414 30.9271 0.00100708 29.6034 0.00100708Z" fill="#41479B"/>
<path d="M31.9668 2.0008C31.7779 0.865655 30.792 0 29.6034 0H28.9799L18.7586 6.69789V6.24769e-05H13.2414V6.69795L3.02012 6.24769e-05H2.39656C1.208 6.24769e-05 0.222063 0.865655 0.0331875 2.00086L8.76931 7.72564H0V13.2439H8.76931L0.0331875 18.9685C0.222063 20.1037 1.208 20.9693 2.39656 20.9693H3.02012L13.2414 14.2714V20.9693H18.7586V14.2714L28.9799 20.9693H29.6034C30.792 20.9693 31.7779 20.1037 31.9668 18.9685L23.2307 13.2438H32V7.72551H23.2307L31.9668 2.0008Z" fill="#F5F5F5"/>
<path d="M17.6552 0.00100708H14.3448V8.83016H0V12.1411H14.3448V20.9703H17.6552V12.1411H32V8.83016H17.6552V0.00100708Z" fill="#FF4B55"/>
<path d="M1.5496 20.8148L13.211 13.2438H11.1843L0.576538 20.1308C0.836101 20.4338 1.16966 20.6712 1.5496 20.8148Z" fill="#FF4B55"/>
<path d="M21.6492 13.2438H19.6224L30.9172 20.5767C31.2332 20.3691 31.497 20.0887 31.6851 19.7594L21.6492 13.2438Z" fill="#FF4B55"/>
<path d="M0.253052 1.32524L10.1112 7.72558H12.1379L0.967177 0.473022C0.667239 0.696313 0.421802 0.98824 0.253052 1.32524Z" fill="#FF4B55"/>
<path d="M20.7854 7.72558L31.4126 0.825898C31.1502 0.523906 30.814 0.287864 30.4314 0.147026L18.7587 7.72558H20.7854Z" fill="#FF4B55"/>
</svg>
