<svg width="32" height="22" viewBox="0 0 32 22" fill="none" xmlns="http://www.w3.org/2000/svg">
<path d="M0 19.0862C0 20.4098 1.07294 21.4828 2.39656 21.4828H29.6034C30.927 21.4828 32 20.4098 32 19.0862V17.0689H0V19.0862Z" fill="#C8414B"/>
<path d="M29.6034 0.51725H2.39656C1.07294 0.51725 0 1.59019 0 2.91381V4.93106H32V2.91381C32 1.59019 30.9271 0.51725 29.6034 0.51725Z" fill="#C8414B"/>
<path d="M32 4.93124H0V17.0694H32V4.93124Z" fill="#FFD250"/>
<path d="M13.5172 11L13.985 8.89493C14.0282 8.70106 13.8806 8.51718 13.682 8.51718H13.3525C13.1539 8.51718 13.0064 8.70112 13.0494 8.89493L13.5172 11Z" fill="#C8414B"/>
<path d="M14.0691 9.89626H12.9656V14.5856H14.0691V9.89626Z" fill="#F5F5F5"/>
<path d="M14.3445 9.345H12.6893V9.89675H14.3445V9.345Z" fill="#FAB446"/>
<path d="M14.345 11H11.5862V11.5518H14.345V11Z" fill="#C8414B"/>
<path d="M14.3448 13.2069L12.6896 12.6552V12.1034L14.3448 12.6552V13.2069Z" fill="#C8414B"/>
<path d="M5.24137 11L5.70919 8.89493C5.75231 8.70106 5.60475 8.51718 5.40612 8.51718H5.07662C4.87806 8.51718 4.73056 8.70112 4.77356 8.89493L5.24137 11Z" fill="#C8414B"/>
<path d="M7.17241 9.34482C6.86772 9.34482 6.62066 9.59188 6.62066 9.89657V13.4828C6.62066 14.1531 7.24629 15.4138 9.37929 15.4138C11.5123 15.4138 12.1379 14.1531 12.1379 13.4828V9.89657C12.1379 9.59188 11.8908 9.34482 11.5862 9.34482H7.17241Z" fill="#F5F5F5"/>
<path d="M9.37929 12.1034H6.62066V9.89657C6.62066 9.59188 6.86772 9.34482 7.17241 9.34482H9.37929V12.1034Z" fill="#C8414B"/>
<path d="M9.37923 12.1034H12.1379V13.4828C12.1379 14.2446 11.5204 14.8621 10.7585 14.8621C9.99673 14.8621 9.37923 14.2446 9.37923 13.4828V12.1034Z" fill="#C8414B"/>
<path d="M6.62066 12.1034H9.37929V13.4828C9.37929 14.2446 8.76179 14.8621 7.99997 14.8621C7.23816 14.8621 6.62066 14.2446 6.62066 13.4828V12.1034Z" fill="#FAB446"/>
<path d="M8.82749 14.58V12.1034H8.27574V14.8342C8.48099 14.7926 8.66642 14.7018 8.82749 14.58Z" fill="#C8414B"/>
<path d="M7.72408 14.8342V12.1034H7.17233V14.58C7.33346 14.7018 7.51889 14.7926 7.72408 14.8342Z" fill="#C8414B"/>
<path d="M8.82766 11H7.17248V11.5518H8.82766V11Z" fill="#FFB441"/>
<path d="M8.82766 9.89626H7.17248V10.448H8.82766V9.89626Z" fill="#FAB446"/>
<path d="M8.5515 10.2244H7.44806V11.2239H8.5515V10.2244Z" fill="#FAB446"/>
<path d="M5.79279 9.89626H4.68935V14.5856H5.79279V9.89626Z" fill="#F5F5F5"/>
<path d="M6.06895 14.3106H4.41376V14.8624H6.06895V14.3106Z" fill="#FAB446"/>
<path d="M6.06895 9.345H4.41376V9.89675H6.06895V9.345Z" fill="#FAB446"/>
<path d="M6.34499 14.8619H4.13811V15.4136H6.34499V14.8619Z" fill="#5064AA"/>
<path d="M14.6208 14.3106H12.9656V14.8624H14.6208V14.3106Z" fill="#FAB446"/>
<path d="M14.6206 14.8619H12.4138V15.4136H14.6206V14.8619Z" fill="#5064AA"/>
<path d="M11.0348 8.79312H7.72441V9.34487H11.0348V8.79312Z" fill="#FAB446"/>
<path d="M9.65547 7.13812H9.10372V8.79331H9.65547V7.13812Z" fill="#FFB441"/>
<path d="M8.82756 7.9655C8.37119 7.9655 8 7.59425 8 7.13794C8 6.68157 8.37125 6.31038 8.82756 6.31038C9.28394 6.31038 9.65512 6.68163 9.65512 7.13794C9.65519 7.59425 9.28394 7.9655 8.82756 7.9655ZM8.82756 6.86207C8.67537 6.86207 8.55169 6.98569 8.55169 7.13794C8.55169 7.29013 8.67531 7.41382 8.82756 7.41382C8.97981 7.41382 9.10344 7.29019 9.10344 7.13794C9.10344 6.98575 8.97981 6.86207 8.82756 6.86207Z" fill="#F5F5F5"/>
<path d="M9.93106 7.9655C9.47468 7.9655 9.10349 7.59425 9.10349 7.13794C9.10349 6.68157 9.47474 6.31038 9.93106 6.31038C10.3874 6.31038 10.7586 6.68163 10.7586 7.13794C10.7586 7.59425 10.3874 7.9655 9.93106 7.9655ZM9.93106 6.86207C9.77887 6.86207 9.65518 6.98569 9.65518 7.13794C9.65518 7.29013 9.77881 7.41382 9.93106 7.41382C10.0832 7.41382 10.2069 7.29019 10.2069 7.13794C10.2069 6.98575 10.0832 6.86207 9.93106 6.86207Z" fill="#F5F5F5"/>
<path d="M11.0345 8.51725C10.5781 8.51725 10.2069 8.146 10.2069 7.68969C10.2069 7.23332 10.5782 6.86213 11.0345 6.86213C11.4909 6.86213 11.8621 7.23338 11.8621 7.68969C11.8621 8.146 11.4908 8.51725 11.0345 8.51725ZM11.0345 7.41382C10.8823 7.41382 10.7586 7.53744 10.7586 7.68969C10.7586 7.84188 10.8823 7.96557 11.0345 7.96557C11.1867 7.96557 11.3104 7.84194 11.3104 7.68969C11.3104 7.53744 11.1867 7.41382 11.0345 7.41382Z" fill="#F5F5F5"/>
<path d="M7.72415 8.51725C7.26778 8.51725 6.89659 8.146 6.89659 7.68969C6.89659 7.23332 7.26784 6.86213 7.72415 6.86213C8.18053 6.86213 8.55171 7.23338 8.55171 7.68969C8.55178 8.146 8.18053 8.51725 7.72415 8.51725ZM7.72415 7.41382C7.57196 7.41382 7.44828 7.53744 7.44828 7.68969C7.44828 7.84188 7.5719 7.96557 7.72415 7.96557C7.8764 7.96557 8.00003 7.84188 8.00003 7.68963C8.00003 7.53744 7.8764 7.41382 7.72415 7.41382Z" fill="#F5F5F5"/>
<path d="M11.0345 13.2069V13.4828C11.0345 13.6349 10.9108 13.7586 10.7586 13.7586C10.6065 13.7586 10.4828 13.6349 10.4828 13.4828V13.2069H11.0345ZM11.5862 12.6552H9.931V13.4828C9.931 13.9391 10.3023 14.3103 10.7586 14.3103C11.2149 14.3103 11.5861 13.9391 11.5861 13.4828V12.6552H11.5862Z" fill="#FAB446"/>
<path d="M10.7586 11.5517C10.4539 11.5517 10.2068 11.3047 10.2068 11V10.4482C10.2068 10.1436 10.4539 9.8965 10.7586 9.8965C11.0633 9.8965 11.3103 10.1436 11.3103 10.4482V11C11.3103 11.3047 11.0633 11.5517 10.7586 11.5517Z" fill="#FFA0D2"/>
<path d="M9.37938 12.9307C9.83643 12.9307 10.2069 12.5602 10.2069 12.1031C10.2069 11.6461 9.83643 11.2756 9.37938 11.2756C8.92233 11.2756 8.55181 11.6461 8.55181 12.1031C8.55181 12.5602 8.92233 12.9307 9.37938 12.9307Z" fill="#5064AA"/>
<path d="M9.65547 6.03438H9.10372V7.68956H9.65547V6.03438Z" fill="#FAB446"/>
<path d="M7.72408 8.79313L7.17233 8.24138L7.49552 7.91819C7.99508 7.41863 8.67271 7.13794 9.37927 7.13794C10.0858 7.13794 10.7634 7.41863 11.263 7.91819L11.5862 8.24138L11.0345 8.79313H7.72408Z" fill="#C8414B"/>
<path d="M9.37937 8.51712C9.53173 8.51712 9.65524 8.39361 9.65524 8.24125C9.65524 8.08888 9.53173 7.96537 9.37937 7.96537C9.22701 7.96537 9.10349 8.08888 9.10349 8.24125C9.10349 8.39361 9.22701 8.51712 9.37937 8.51712Z" fill="#FFD250"/>
<path d="M8.27565 8.51712C8.42801 8.51712 8.55153 8.39361 8.55153 8.24125C8.55153 8.08888 8.42801 7.96537 8.27565 7.96537C8.12329 7.96537 7.99977 8.08888 7.99977 8.24125C7.99977 8.39361 8.12329 8.51712 8.27565 8.51712Z" fill="#FFD250"/>
<path d="M10.4825 8.51712C10.6349 8.51712 10.7584 8.39361 10.7584 8.24125C10.7584 8.08888 10.6349 7.96537 10.4825 7.96537C10.3302 7.96537 10.2067 8.08888 10.2067 8.24125C10.2067 8.39361 10.3302 8.51712 10.4825 8.51712Z" fill="#FFD250"/>
<path d="M7.17251 11H4.41376V11.5518H7.17251V11Z" fill="#C8414B"/>
<path d="M4.41388 13.2069L6.069 12.6552V12.1034L4.41388 12.6552V13.2069Z" fill="#C8414B"/>
</svg>
